# xmcd CD database file
#
# Track frame offsets:
#	150
#	17495
#	30815
#	47417
#	64542
#	86582
#	103315
#	127902
#	150712
#
# Disc length: 2348 seconds
#
# Revision: 2
# Processed by: cddbd v1.5.2PL0 Copyright (c) Steve Scherf et al.
# Submitted via: CDex 1.51
#
DISCID=5d092a09
DTITLE=PRAYING MANTIS - TIME TELLS NO LIES
DYEAR=1981
DGENRE=Hard Rock
TTITLE0=Cheated
TTITLE1=All Day And All Of The Night
TTITLE2=Running For Tommorrow
TTITLE3=Rich City Kids
TTITLE4=Lovers To The Grave
TTITLE5=Panic In The Streets
TTITLE6=Beads Of Ebony
TTITLE7=Flirting With Suicide
TTITLE8=Children Of The Earth
EXTD=YEAR: 1981
EXTT0=
EXTT1=
EXTT2=
EXTT3=
EXTT4=
EXTT5=
EXTT6=
EXTT7=
EXTT8=
PLAYORDER=
